#N canvas 0 33 718 865 10;
#X obj 151 291 sp_host test_pd.sp;
#X obj 124 500 dac~;
#X obj 125 474 vol~;
#X floatatom 60 407 5 0 0 0 - - -;
#X floatatom 127 82 5 0 0 0 - - -;
#X msg 126 61 1;
#X floatatom 87 32 5 0 0 0 - - -;
#X msg 56 380 66;
#X msg 83 8 0.06;
#X obj 6 89 loadbang;
#X msg 204 64 default;
#X msg 196 129 reset;
#X text 269 30 load processor;
#X text 263 65 switch to hardcoded processor;
#X text 242 130 reset feedback state;
#X floatatom 211 182 5 0 0 0 - - -;
#X msg 210 161 1;
#X msg 128 102 param 2 \$1;
#X msg 212 202 max \$1;
#X text 197 103 set param by numeric id;
#X text 260 202 set param by name;
#X floatatom 458 108 5 0 0 0 - - -;
#X msg 459 128 param 0 \$1;
#X floatatom 458 154 5 0 0 0 - - -;
#X msg 459 174 param 1 \$1;
#X floatatom 456 203 5 0 0 0 - - -;
#X msg 457 224 param 3 \$1;
#X msg 150 30 load test_pd.sp;
#X obj 458 81 mtof;
#X floatatom 628 78 3 0 0 0 - - -;
#X obj 583 26 notein;
#X obj 583 52 stripnote;
#X floatatom 583 77 3 0 0 0 - - -;
#X obj 583 97 bng 20 250 50 0 empty empty empty 17 7 0 10 -262144 -1
-1;
#X obj 276 274 notein;
#X obj 279 337 mtof;
#X obj 277 362 pack f f;
#X obj 314 333 * 0.01;
#X obj 312 397 print;
#X floatatom 434 256 5 0 0 0 - - -;
#X msg 286 465 note \$1 \$2;
#X obj 431 286 / 1000;
#X msg 173 55 \; pd dsp 1;
#X msg 433 312 param spread \$1;
#X connect 0 0 2 0;
#X connect 2 0 1 0;
#X connect 2 0 1 1;
#X connect 3 0 2 1;
#X connect 4 0 17 0;
#X connect 5 0 4 0;
#X connect 6 0 0 0;
#X connect 7 0 3 0;
#X connect 8 0 6 0;
#X connect 9 0 7 0;
#X connect 9 0 5 0;
#X connect 9 0 8 0;
#X connect 9 0 42 0;
#X connect 10 0 0 0;
#X connect 11 0 0 0;
#X connect 15 0 18 0;
#X connect 16 0 15 0;
#X connect 17 0 0 0;
#X connect 18 0 0 0;
#X connect 21 0 22 0;
#X connect 23 0 24 0;
#X connect 24 0 0 0;
#X connect 25 0 26 0;
#X connect 26 0 0 0;
#X connect 27 0 0 0;
#X connect 28 0 21 0;
#X connect 30 0 31 0;
#X connect 30 1 31 1;
#X connect 31 0 32 0;
#X connect 31 1 29 0;
#X connect 32 0 33 0;
#X connect 32 0 28 0;
#X connect 34 0 35 0;
#X connect 34 1 37 0;
#X connect 35 0 36 0;
#X connect 36 0 40 0;
#X connect 36 0 38 0;
#X connect 37 0 36 1;
#X connect 39 0 41 0;
#X connect 40 0 0 0;
#X connect 41 0 43 0;
#X connect 43 0 0 0;
