#N canvas 480 479 478 419 10;
#X obj 80 256 dac~;
#X floatatom 112 190 5 0 0 0 - - -;
#X obj 128 7 loadbang;
#X obj 267 14 notein;
#X obj 270 77 mtof;
#X obj 268 102 pack f f;
#X obj 305 73 * 0.01;
#X obj 303 137 print;
#X msg 277 205 note \$1 \$2;
#X msg 140 37 \; pd dsp 1;
#X floatatom 225 97 5 0 0 0 - - -;
#X obj 273 368 tgl 15 0 empty empty empty 17 7 0 10 -262144 -1 -1 0
1;
#X obj 271 419 tgl 15 0 empty empty empty 17 7 0 10 -262144 -1 -1 0
1;
#X obj 273 394 metro 200;
#X floatatom 330 374 5 0 0 0 - - -;
#X obj 270 446 route 0 1;
#X obj 270 474 bng 15 250 50 0 empty empty empty 17 7 0 10 -262144
-1 -1;
#X obj 294 474 bng 15 250 50 0 empty empty empty 17 7 0 10 -262144
-1 -1;
#N canvas 0 29 1438 419 rx 1;
#X obj 63 217 outlet;
#X obj 84 57 r param0;
#X msg 84 79 control 0 \$1;
#X obj 181 55 r param1;
#X msg 181 77 control 1 \$1;
#X obj 373 19 ctlin;
#X floatatom 369 58 5 0 0 0 - - -;
#X floatatom 408 58 5 0 0 0 - - -;
#X floatatom 455 57 5 0 0 0 - - -;
#X obj 367 77 / 127;
#X floatatom 369 103 5 0 0 0 - - -;
#X msg 383 137 \$2 \$1;
#X obj 377 122 pack f f;
#X floatatom 350 212 5 0 0 0 - - -;
#X floatatom 387 211 5 0 0 0 - - -;
#X floatatom 432 210 5 0 0 0 - - -;
#X floatatom 469 209 5 0 0 0 - - -;
#X obj 443 149 print;
#X msg 339 256 \; slider0 \$1;
#X msg 336 285 \; slider1 \$1;
#X msg 338 317 \; slider2 \$1;
#X obj 182 105 r param2;
#X msg 182 127 control 2 \$1;
#X obj 177 160 r param3;
#X msg 178 181 control 3 \$1;
#X msg 336 354 \; slider3 \$1;
#X floatatom 514 214 5 0 0 0 - - -;
#X msg 503 258 \; slider4 \$1;
#X obj 173 214 r param4;
#X msg 174 236 control 4 \$1;
#X floatatom 555 214 5 0 0 0 - - -;
#X floatatom 596 212 5 0 0 0 - - -;
#X floatatom 636 211 5 0 0 0 - - -;
#X msg 503 299 \; slider5 \$1;
#X msg 505 331 \; slider6 \$1;
#X msg 503 368 \; slider7 \$1;
#X obj 166 267 r param5;
#X msg 167 288 control 5 \$1;
#X obj 162 317 r param6;
#X msg 163 339 control 6 \$1;
#X obj 161 374 r param7;
#X msg 162 396 control 7 \$1;
#X floatatom 243 365 5 0 0 0 - - -;
#X floatatom 269 312 5 0 0 0 - - -;
#X obj 443 176 route 74 71 73 75 72 91 93 10;
#X text 659 175 UMA25S defaults;
#X connect 1 0 2 0;
#X connect 2 0 0 0;
#X connect 3 0 4 0;
#X connect 4 0 0 0;
#X connect 5 0 6 0;
#X connect 5 1 7 0;
#X connect 5 2 8 0;
#X connect 6 0 9 0;
#X connect 7 0 12 1;
#X connect 9 0 10 0;
#X connect 10 0 12 0;
#X connect 11 0 44 0;
#X connect 12 0 11 0;
#X connect 13 0 18 0;
#X connect 14 0 19 0;
#X connect 15 0 20 0;
#X connect 16 0 25 0;
#X connect 21 0 22 0;
#X connect 22 0 0 0;
#X connect 23 0 24 0;
#X connect 24 0 0 0;
#X connect 26 0 27 0;
#X connect 28 0 29 0;
#X connect 29 0 0 0;
#X connect 30 0 33 0;
#X connect 31 0 34 0;
#X connect 32 0 35 0;
#X connect 36 0 37 0;
#X connect 37 0 0 0;
#X connect 38 0 39 0;
#X connect 39 0 0 0;
#X connect 39 0 42 0;
#X connect 40 0 41 0;
#X connect 41 0 0 0;
#X connect 43 0 39 0;
#X connect 44 0 13 0;
#X connect 44 1 14 0;
#X connect 44 2 15 0;
#X connect 44 3 16 0;
#X connect 44 4 26 0;
#X connect 44 5 30 0;
#X connect 44 6 31 0;
#X connect 44 7 32 0;
#X restore 57 127 pd rx;
#X obj 54 397 env~;
#X floatatom 55 426 5 0 0 0 - - -;
#X obj 278 228 print;
#X msg 268 529 note 120 127;
#X msg 292 497 note 120 0;
#X obj 498 418 mtof;
#X floatatom 498 441 5 0 0 0 - - -;
#X floatatom 492 388 5 0 0 0 - - -;
#X obj 372 19 netreceive 12345;
#X msg 19 87 load synth.sp;
#X msg 166 166 80;
#X obj 79 225 vols~;
#N canvas 0 479 478 419 sp 1;
#X obj 286 33 inlet;
#X obj 286 82 outlet~;
#X obj 286 56 sp_host synth.sp;
#X msg 349 33 create_gui;
#X connect 0 0 2 0;
#X connect 2 0 1 0;
#X connect 3 0 2 0;
#X restore 41 163 pd sp;
#X connect 1 0 30 2;
#X connect 2 0 29 0;
#X connect 2 0 9 0;
#X connect 3 0 4 0;
#X connect 3 1 6 0;
#X connect 4 0 5 0;
#X connect 4 0 10 0;
#X connect 5 0 8 0;
#X connect 5 0 7 0;
#X connect 6 0 5 1;
#X connect 8 0 21 0;
#X connect 8 0 31 0;
#X connect 11 0 13 0;
#X connect 12 0 15 0;
#X connect 13 0 12 0;
#X connect 14 0 13 1;
#X connect 15 0 16 0;
#X connect 15 1 17 0;
#X connect 16 0 22 0;
#X connect 17 0 23 0;
#X connect 18 0 31 0;
#X connect 19 0 20 0;
#X connect 22 0 31 0;
#X connect 23 0 31 0;
#X connect 24 0 25 0;
#X connect 26 0 24 0;
#X connect 28 0 31 0;
#X connect 29 0 1 0;
#X connect 30 0 0 0;
#X connect 30 0 19 0;
#X connect 30 1 0 1;
#X connect 31 0 30 0;
#X connect 31 0 30 1;
