#N canvas 0 29 1438 419 10;
#X obj 80 256 dac~;
#X floatatom 112 190 5 0 0 0 - - -;
#X obj 128 7 loadbang;
#X msg 140 37 \; pd dsp 1;
#X obj 250 139 tgl 15 0 empty empty empty 17 7 0 10 -262144 -1 -1 0
1;
#X obj 248 190 tgl 15 0 empty empty empty 17 7 0 10 -262144 -1 -1 0
1;
#X obj 250 165 metro 200;
#X floatatom 307 145 5 0 0 0 - - -;
#X obj 247 217 route 0 1;
#X obj 247 245 bng 15 250 50 0 empty empty empty 17 7 0 10 -262144
-1 -1;
#X obj 271 245 bng 15 250 50 0 empty empty empty 17 7 0 10 -262144
-1 -1;
#N canvas 320 104 402 263 rx 0;
#X obj 138 183 outlet;
#X obj 52 15 ctlin;
#X floatatom 48 54 5 0 0 0 - - -;
#X floatatom 87 54 5 0 0 0 - - -;
#X floatatom 134 53 5 0 0 0 - - -;
#X obj 49 98 pack f f;
#X obj 42 173 print;
#X msg 49 121 cc \$2 \$1;
#X obj 210 21 notein;
#X obj 200 49 mtof;
#X obj 200 73 pack f f;
#X obj 239 49 * 0.01;
#X msg 196 99 note \$1 \$2;
#X obj 207 155 print;
#X connect 1 0 2 0;
#X connect 1 1 3 0;
#X connect 1 2 4 0;
#X connect 2 0 5 0;
#X connect 3 0 5 1;
#X connect 5 0 7 0;
#X connect 7 0 0 0;
#X connect 8 0 9 0;
#X connect 8 1 11 0;
#X connect 9 0 10 0;
#X connect 10 0 12 0;
#X connect 11 0 10 1;
#X connect 12 0 0 0;
#X restore 57 127 pd rx;
#X obj 77 346 env~;
#X floatatom 78 375 5 0 0 0 - - -;
#X msg 245 300 note 120 127;
#X msg 269 268 note 120 0;
#X obj 372 19 netreceive 12345;
#X msg 19 87 load synth.sp;
#X msg 112 162 80;
#X obj 79 225 vols~;
#N canvas 494 324 791 423 sp 1;
#X obj 417 163 inlet;
#X obj 417 212 outlet~;
#X obj 417 186 sp_host synth.sp;
#X text 608 165 from synth metadata;
#X text 607 180 ( before clicking \, delete sliders + control objects
);
#X msg 480 163 create_gui 10 10;
#X obj 10 10 hsl 128 15 0 1 0 1 param0 slider0 Attack/ms -2 -8 0 10
-262144 -1 -1 5200 1;
#X msg 210 25 control 0 \$1;
#X obj 10 40 hsl 128 15 0 1 0 1 param1 slider1 Decay/ms -2 -8 0 10
-262144 -1 -1 400 1;
#X msg 210 55 control 1 \$1;
#X obj 10 70 hsl 128 15 0 1 0 1 param2 slider2 Sustain/dB -2 -8 0 10
-262144 -1 -1 12500 1;
#X msg 210 85 control 2 \$1;
#X obj 10 100 hsl 128 15 0 1 0 1 param3 slider3 Release/ms -2 -8 0
10 -262144 -1 -1 5700 1;
#X msg 210 115 control 3 \$1;
#X obj 10 130 hsl 128 15 0 1 0 1 param4 slider4 Cutoff/Hz -2 -8 0 10
-262144 -1 -1 8400 1;
#X msg 210 145 control 4 \$1;
#X obj 10 160 hsl 128 15 0 1 0 1 param5 slider5 Filter_Attack/ms -2
-8 0 10 -262144 -1 -1 4700 1;
#X msg 210 175 control 5 \$1;
#X obj 10 190 hsl 128 15 0 1 0 1 param6 slider6 Filter_Release/ms -2
-8 0 10 -262144 -1 -1 3400 1;
#X msg 210 205 control 6 \$1;
#X obj 10 220 hsl 128 15 0 1 0 1 param7 slider7 Filter_Env/Hz -2 -8
0 10 -262144 -1 -1 7800 1;
#X msg 210 235 control 7 \$1;
#X obj 10 250 hsl 128 15 0 1 0 1 param8 slider8 Filter_Q/dB -2 -8 0
10 -262144 -1 -1 0 1;
#X msg 210 265 control 8 \$1;
#X obj 10 280 hsl 128 15 0 1 0 1 param9 slider9 Osc_Spread/% -2 -8
0 10 -262144 -1 -1 0 1;
#X msg 210 295 control 9 \$1;
#X connect 0 0 2 0;
#X connect 2 0 1 0;
#X connect 5 0 2 0;
#X connect 6 0 7 0;
#X connect 7 0 2 0;
#X connect 8 0 9 0;
#X connect 9 0 2 0;
#X connect 10 0 11 0;
#X connect 11 0 2 0;
#X connect 12 0 13 0;
#X connect 13 0 2 0;
#X connect 14 0 15 0;
#X connect 15 0 2 0;
#X connect 16 0 17 0;
#X connect 17 0 2 0;
#X connect 18 0 19 0;
#X connect 19 0 2 0;
#X connect 20 0 21 0;
#X connect 21 0 2 0;
#X connect 22 0 23 0;
#X connect 23 0 2 0;
#X connect 24 0 25 0;
#X connect 25 0 2 0;
#X coords 0 423 1 422 85 60 0;
#X restore 41 163 pd sp;
#X msg 131 100 cc_map 74 71 73 75 72 91 93 10;
#X text 357 102 UMA25S knobs CC defaults;
#X connect 1 0 19 2;
#X connect 2 0 18 0;
#X connect 2 0 3 0;
#X connect 2 0 21 0;
#X connect 4 0 6 0;
#X connect 5 0 8 0;
#X connect 6 0 5 0;
#X connect 7 0 6 1;
#X connect 8 0 9 0;
#X connect 8 1 10 0;
#X connect 9 0 14 0;
#X connect 10 0 15 0;
#X connect 11 0 20 0;
#X connect 12 0 13 0;
#X connect 14 0 20 0;
#X connect 15 0 20 0;
#X connect 17 0 20 0;
#X connect 18 0 1 0;
#X connect 19 0 0 0;
#X connect 19 0 12 0;
#X connect 19 1 0 1;
#X connect 20 0 19 0;
#X connect 20 0 19 1;
#X connect 21 0 20 0;
