#N canvas 720 329 718 269 10;
#X obj 80 256 dac~;
#X floatatom 112 190 5 0 0 0 - - -;
#X obj 128 7 loadbang;
#X msg 140 37 \; pd dsp 1;
#X obj 250 139 tgl 15 0 empty empty empty 17 7 0 10 -262144 -1 -1 0
1;
#X obj 248 190 tgl 15 0 empty empty empty 17 7 0 10 -262144 -1 -1 0
1;
#X obj 250 165 metro 200;
#X floatatom 307 145 5 0 0 0 - - -;
#X obj 247 217 route 0 1;
#X obj 247 245 bng 15 250 50 0 empty empty empty 17 7 0 10 -262144
-1 -1;
#X obj 271 245 bng 15 250 50 0 empty empty empty 17 7 0 10 -262144
-1 -1;
#N canvas 720 29 718 269 rx 1;
#X obj 138 183 outlet;
#X obj 52 15 ctlin;
#X floatatom 48 54 5 0 0 0 - - -;
#X floatatom 87 54 5 0 0 0 - - -;
#X floatatom 134 53 5 0 0 0 - - -;
#X obj 49 98 pack f f;
#X obj 42 173 print;
#X msg 49 121 cc \$2 \$1;
#X obj 210 21 notein;
#X obj 200 49 mtof;
#X obj 200 73 pack f f;
#X obj 239 49 * 0.01;
#X msg 196 99 note \$1 \$2;
#X obj 207 155 print;
#X connect 1 0 2 0;
#X connect 1 1 3 0;
#X connect 1 2 4 0;
#X connect 2 0 5 0;
#X connect 3 0 5 1;
#X connect 5 0 7 0;
#X connect 7 0 0 0;
#X connect 7 0 6 0;
#X connect 8 0 9 0;
#X connect 8 1 11 0;
#X connect 9 0 10 0;
#X connect 10 0 12 0;
#X connect 11 0 10 1;
#X connect 12 0 0 0;
#X connect 12 0 13 0;
#X restore 57 127 pd rx;
#X obj 77 346 env~;
#X floatatom 78 375 5 0 0 0 - - -;
#X msg 245 300 note 120 127;
#X msg 269 268 note 120 0;
#X obj 372 19 netreceive 12345;
#X msg 19 87 load synth.sp;
#X msg 112 162 80;
#X obj 79 225 vols~;
#N canvas 0 29 718 869 sp 1;
#X obj 417 609 inlet;
#X obj 417 658 outlet~;
#X obj 417 632 sp_host synth.sp;
#X text 608 611 from synth metadata;
#X text 607 626 ( before clicking \, delete sliders + control objects
);
#X msg 480 609 create_gui 10 10;
#X connect 0 0 2 0;
#X connect 2 0 1 0;
#X connect 5 0 2 0;
#X coords 0 869 1 868 85 60 0;
#X restore 41 163 pd sp;
#X msg 131 100 cc_map 74 71 73 75 72 91 93 10;
#X text 357 102 UMA25S knobs CC defaults;
#X connect 1 0 19 2;
#X connect 2 0 18 0;
#X connect 2 0 3 0;
#X connect 2 0 21 0;
#X connect 4 0 6 0;
#X connect 5 0 8 0;
#X connect 6 0 5 0;
#X connect 7 0 6 1;
#X connect 8 0 9 0;
#X connect 8 1 10 0;
#X connect 9 0 14 0;
#X connect 10 0 15 0;
#X connect 11 0 20 0;
#X connect 12 0 13 0;
#X connect 14 0 20 0;
#X connect 15 0 20 0;
#X connect 17 0 20 0;
#X connect 18 0 1 0;
#X connect 19 0 0 0;
#X connect 19 0 12 0;
#X connect 19 1 0 1;
#X connect 20 0 19 0;
#X connect 20 0 19 1;
#X connect 21 0 20 0;
