#N canvas 720 29 718 419 10;
#X obj 80 256 dac~;
#X floatatom 112 190 5 0 0 0 - - -;
#X obj 128 7 loadbang;
#X obj 267 14 notein;
#X obj 270 77 mtof;
#X obj 268 102 pack f f;
#X obj 305 73 * 0.01;
#X obj 303 137 print;
#X floatatom 48 41 5 0 0 0 - - -;
#X msg 277 205 note \$1 \$2;
#X obj 45 71 / 1000;
#X msg 140 37 \; pd dsp 1;
#X floatatom 225 97 5 0 0 0 - - -;
#X msg 47 97 param spread \$1;
#X obj 294 262 hsl 128 15 0 1 0 0 empty empty empty -2 -8 0 10 -262144
-1 -1 0 1;
#X msg 197 284 param decay \$1;
#X obj 295 285 hsl 128 15 0 1 0 0 empty empty empty -2 -8 0 10 -262144
-1 -1 0 1;
#X msg 196 261 param attack \$1;
#X obj 273 368 tgl 15 0 empty empty empty 17 7 0 10 -262144 -1 -1 0
1;
#X obj 271 419 tgl 15 0 empty empty empty 17 7 0 10 -262144 -1 -1 0
1;
#X obj 273 394 metro 200;
#X floatatom 330 374 5 0 0 0 - - -;
#X obj 270 446 route 0 1;
#X obj 270 474 bng 15 250 50 0 empty empty empty 17 7 0 10 -262144
-1 -1;
#X obj 294 474 bng 15 250 50 0 empty empty empty 17 7 0 10 -262144
-1 -1;
#X obj 487 64 hsl 128 15 0 1 0 0 param0 slider0 Attack/ms -2 -8 0 12
-262144 -1 -1 0 1;
#X obj 253 740 print p0;
#X msg 440 661 \; slider0 label Test2;
#X obj 386 751 r slider0;
#X obj 388 777 print;
#X obj 487 98 hsl 128 15 0 1 0 0 param1 slider1 Decay/ms -2 -8 0 12
-262144 -1 -1 2700 1;
#X msg 476 711 \; slider0 set 0.3;
#N canvas 0 29 718 869 rx 1;
#X obj 63 217 outlet;
#X obj 84 57 r param0;
#X msg 84 79 control 0 \$1;
#X obj 181 55 r param1;
#X msg 181 77 control 1 \$1;
#X obj 373 19 ctlin;
#X floatatom 369 58 5 0 0 0 - - -;
#X floatatom 408 58 5 0 0 0 - - -;
#X floatatom 455 57 5 0 0 0 - - -;
#X obj 367 77 / 127;
#X floatatom 369 103 5 0 0 0 - - -;
#X msg 383 137 \$2 \$1;
#X obj 377 122 pack f f;
#X floatatom 350 212 5 0 0 0 - - -;
#X floatatom 387 211 5 0 0 0 - - -;
#X floatatom 432 210 5 0 0 0 - - -;
#X floatatom 469 209 5 0 0 0 - - -;
#X obj 443 149 print;
#X obj 443 176 route 1 2 3 4 5 6 7 8;
#X msg 339 256 \; slider0 \$1;
#X msg 336 285 \; slider1 \$1;
#X msg 338 317 \; slider2 \$1;
#X obj 182 105 r param2;
#X msg 182 127 control 2 \$1;
#X obj 177 160 r param3;
#X msg 178 181 control 3 \$1;
#X msg 336 354 \; slider3 \$1;
#X floatatom 514 214 5 0 0 0 - - -;
#X msg 503 258 \; slider4 \$1;
#X obj 173 214 r param4;
#X msg 174 236 control 4 \$1;
#X floatatom 555 214 5 0 0 0 - - -;
#X floatatom 596 212 5 0 0 0 - - -;
#X floatatom 636 211 5 0 0 0 - - -;
#X msg 503 299 \; slider5 \$1;
#X msg 505 331 \; slider6 \$1;
#X msg 503 368 \; slider7 \$1;
#X obj 166 267 r param5;
#X msg 167 288 control 5 \$1;
#X obj 162 317 r param6;
#X msg 163 339 control 6 \$1;
#X obj 161 374 r param7;
#X msg 162 396 control 7 \$1;
#X floatatom 243 365 5 0 0 0 - - -;
#X floatatom 269 312 5 0 0 0 - - -;
#X connect 1 0 2 0;
#X connect 2 0 0 0;
#X connect 3 0 4 0;
#X connect 4 0 0 0;
#X connect 5 0 6 0;
#X connect 5 1 7 0;
#X connect 5 2 8 0;
#X connect 6 0 9 0;
#X connect 8 0 12 1;
#X connect 9 0 10 0;
#X connect 10 0 12 0;
#X connect 11 0 18 0;
#X connect 12 0 11 0;
#X connect 13 0 19 0;
#X connect 14 0 20 0;
#X connect 15 0 21 0;
#X connect 16 0 26 0;
#X connect 18 0 13 0;
#X connect 18 1 14 0;
#X connect 18 2 15 0;
#X connect 18 3 16 0;
#X connect 18 4 27 0;
#X connect 18 5 31 0;
#X connect 18 6 32 0;
#X connect 18 7 33 0;
#X connect 22 0 23 0;
#X connect 23 0 0 0;
#X connect 24 0 25 0;
#X connect 25 0 0 0;
#X connect 27 0 28 0;
#X connect 29 0 30 0;
#X connect 30 0 0 0;
#X connect 31 0 34 0;
#X connect 32 0 35 0;
#X connect 33 0 36 0;
#X connect 37 0 38 0;
#X connect 38 0 0 0;
#X connect 39 0 40 0;
#X connect 40 0 0 0;
#X connect 40 0 43 0;
#X connect 41 0 42 0;
#X connect 42 0 0 0;
#X connect 44 0 40 0;
#X restore 61 120 pd rx;
#X obj 54 397 env~;
#X floatatom 55 426 5 0 0 0 - - -;
#X obj 278 228 print;
#X msg 268 529 note 120 127;
#X msg 292 497 note 120 0;
#X obj 498 418 mtof;
#X floatatom 498 441 5 0 0 0 - - -;
#X floatatom 492 388 5 0 0 0 - - -;
#X obj 486 140 hsl 128 15 0 1 0 0 param2 slider2 Sustain/dB -2 -8 0
12 -262144 -1 -1 0 1;
#X obj 486 174 hsl 128 15 0 1 0 0 param3 slider3 Release/ms -2 -8 0
12 -262144 -1 -1 0 1;
#X obj 372 19 netreceive 12345;
#X obj 487 211 hsl 128 15 0 1 0 0 param4 slider4 Cutoff/Hz -2 -8 0
12 -262144 -1 -1 8900 1;
#X msg 26 319 load synth.sp;
#X msg 166 166 80;
#X msg 452 577 \; slider0 label Test1 sadf;
#X obj 79 225 vols~;
#X obj 27 143 sp_host synth.sp;
#X obj 487 252 hsl 128 15 0 1 0 0 param5 slider5 Filter_Attack/ms -2
-8 0 12 -262144 -1 -1 4100 1;
#X obj 487 286 hsl 128 15 0 1 0 0 param6 slider6 Filter_Release/ms
-2 -8 0 12 -262144 -1 -1 9600 1;
#X obj 488 323 hsl 128 15 0 1 0 0 param7 slider7 Filter_Env/Hz -2 -8
0 12 -262144 -1 -1 8100 1;
#X connect 1 0 48 2;
#X connect 2 0 46 0;
#X connect 2 0 11 0;
#X connect 3 0 4 0;
#X connect 3 1 6 0;
#X connect 4 0 5 0;
#X connect 4 0 12 0;
#X connect 5 0 9 0;
#X connect 5 0 7 0;
#X connect 6 0 5 1;
#X connect 8 0 10 0;
#X connect 9 0 35 0;
#X connect 9 0 49 0;
#X connect 10 0 13 0;
#X connect 13 0 49 0;
#X connect 14 0 17 0;
#X connect 15 0 49 0;
#X connect 16 0 15 0;
#X connect 17 0 49 0;
#X connect 18 0 20 0;
#X connect 19 0 22 0;
#X connect 20 0 19 0;
#X connect 21 0 20 1;
#X connect 22 0 23 0;
#X connect 22 1 24 0;
#X connect 23 0 36 0;
#X connect 24 0 37 0;
#X connect 32 0 49 0;
#X connect 33 0 34 0;
#X connect 36 0 49 0;
#X connect 37 0 49 0;
#X connect 38 0 39 0;
#X connect 40 0 38 0;
#X connect 43 0 49 0;
#X connect 45 0 49 0;
#X connect 46 0 1 0;
#X connect 48 0 0 0;
#X connect 48 0 33 0;
#X connect 48 1 0 1;
#X connect 49 0 48 0;
#X connect 49 1 48 1;
