#N canvas 763 446 699 464 10;
#X obj 80 256 dac~;
#X floatatom 112 190 5 0 0 0 - - -;
#X obj 128 7 loadbang;
#X msg 140 37 \; pd dsp 1;
#X obj 250 139 tgl 15 0 empty empty empty 17 7 0 10 -262144 -1 -1 0
1;
#X obj 248 190 tgl 15 0 empty empty empty 17 7 0 10 -262144 -1 -1 0
1;
#X obj 250 165 metro 200;
#X floatatom 307 145 5 0 0 0 - - -;
#X obj 247 217 route 0 1;
#X obj 247 245 bng 15 250 50 0 empty empty empty 17 7 0 10 -262144
-1 -1;
#X obj 271 245 bng 15 250 50 0 empty empty empty 17 7 0 10 -262144
-1 -1;
#N canvas 0 56 286 842 rx 1;
#X obj 138 183 outlet;
#X obj 52 15 ctlin;
#X floatatom 48 54 5 0 0 0 - - -;
#X floatatom 87 54 5 0 0 0 - - -;
#X floatatom 134 53 5 0 0 0 - - -;
#X obj 49 98 pack f f;
#X obj 42 173 print;
#X msg 49 121 cc \$2 \$1;
#X obj 210 21 notein;
#X obj 200 49 mtof;
#X obj 200 73 pack f f;
#X obj 239 49 * 0.01;
#X msg 196 99 note \$1 \$2;
#X obj 207 155 print;
#X connect 1 0 2 0;
#X connect 1 1 3 0;
#X connect 1 2 4 0;
#X connect 2 0 5 0;
#X connect 3 0 5 1;
#X connect 5 0 7 0;
#X connect 7 0 0 0;
#X connect 7 0 6 0;
#X connect 8 0 9 0;
#X connect 8 1 11 0;
#X connect 9 0 10 0;
#X connect 10 0 12 0;
#X connect 11 0 10 1;
#X connect 12 0 0 0;
#X connect 12 0 13 0;
#X restore 57 127 pd rx;
#X obj 77 346 env~;
#X floatatom 78 375 5 0 0 0 - - -;
#X msg 245 300 note 120 127;
#X msg 269 268 note 120 0;
#X obj 372 19 netreceive 12345;
#X msg 19 87 load synth.sp;
#X msg 112 162 80;
#X obj 79 225 vols~;
#N canvas 288 56 286 842 sp 1;
#X obj 417 582 inlet;
#X obj 417 631 outlet~;
#X text 608 584 from synth metadata;
#X text 607 599 ( before clicking \, delete sliders + control objects
);
#X msg 480 582 create_gui 10 10;
#X obj 10 583 hsl 128 15 0 1 0 1 empty slider0 Attack/ms -2 -8 0 10
-262144 -1 -1 6000 1;
#X msg 210 598 control 0 \$1;
#X obj 10 613 hsl 128 15 0 1 0 1 empty slider1 Decay/ms -2 -8 0 10
-262144 -1 -1 12700 1;
#X msg 210 628 control 1 \$1;
#X obj 10 643 hsl 128 15 0 1 0 1 empty slider2 Sustain/dB -2 -8 0 10
-262144 -1 -1 10200 1;
#X msg 210 658 control 2 \$1;
#X obj 10 673 hsl 128 15 0 1 0 1 empty slider3 Release/ms -2 -8 0 10
-262144 -1 -1 12400 1;
#X msg 210 688 control 3 \$1;
#X obj 10 703 hsl 128 15 0 1 0 1 empty slider4 Cutoff/Hz -2 -8 0 10
-262144 -1 -1 7800 1;
#X msg 210 718 control 4 \$1;
#X obj 10 733 hsl 128 15 0 1 0 1 empty slider5 Filter_Attack/ms -2
-8 0 10 -262144 -1 -1 300 1;
#X msg 210 748 control 5 \$1;
#X obj 10 763 hsl 128 15 0 1 0 1 empty slider6 Filter_Release/ms -2
-8 0 10 -262144 -1 -1 6600 1;
#X msg 210 778 control 6 \$1;
#X obj 10 793 hsl 128 15 0 1 0 1 empty slider7 Filter_Env/Hz -2 -8
0 10 -262144 -1 -1 7300 1;
#X msg 210 808 control 7 \$1;
#X obj 10 823 hsl 128 15 0 1 0 1 empty slider8 Filter_Q/dB -2 -8 0
10 -262144 -1 -1 0 1;
#X msg 210 838 control 8 \$1;
#X obj 10 853 hsl 128 15 0 1 0 1 empty slider9 Osc_Spread/% -2 -8 0
10 -262144 -1 -1 0 1;
#X msg 210 868 control 9 \$1;
#X obj 417 605 sp_host synth.sp;
#X connect 0 0 25 0;
#X connect 4 0 25 0;
#X connect 5 0 6 0;
#X connect 6 0 25 0;
#X connect 7 0 8 0;
#X connect 8 0 25 0;
#X connect 9 0 10 0;
#X connect 10 0 25 0;
#X connect 11 0 12 0;
#X connect 12 0 25 0;
#X connect 13 0 14 0;
#X connect 14 0 25 0;
#X connect 15 0 16 0;
#X connect 16 0 25 0;
#X connect 17 0 18 0;
#X connect 18 0 25 0;
#X connect 19 0 20 0;
#X connect 20 0 25 0;
#X connect 21 0 22 0;
#X connect 22 0 25 0;
#X connect 23 0 24 0;
#X connect 24 0 25 0;
#X connect 25 0 1 0;
#X coords 0 842 1 841 85 60 0;
#X restore 41 163 pd sp;
#X msg 131 100 cc_map 74 71 73 75 72 91 93 10;
#X text 357 102 UMA25S knobs CC defaults;
#X obj 376 50 print;
#X connect 1 0 19 2;
#X connect 2 0 18 0;
#X connect 2 0 3 0;
#X connect 2 0 21 0;
#X connect 4 0 6 0;
#X connect 5 0 8 0;
#X connect 6 0 5 0;
#X connect 7 0 6 1;
#X connect 8 0 9 0;
#X connect 8 1 10 0;
#X connect 9 0 14 0;
#X connect 10 0 15 0;
#X connect 11 0 20 0;
#X connect 12 0 13 0;
#X connect 14 0 20 0;
#X connect 15 0 20 0;
#X connect 16 0 20 0;
#X connect 16 0 23 0;
#X connect 17 0 20 0;
#X connect 18 0 1 0;
#X connect 19 0 0 0;
#X connect 19 0 12 0;
#X connect 19 1 0 1;
#X connect 20 0 19 0;
#X connect 20 0 19 1;
#X connect 21 0 20 0;
